<svg version="1.1" xmlns="http://www.w3.org/2000/svg" xmlns:xlink="http://www.w3.org/1999/xlink" width="317.8" height="96.4" viewBox="0,0,317.8,96.4"><g transform="translate(-81.1,-131.8)"><g data-paper-data="{&quot;isPaintingLayer&quot;:true}" fill-rule="evenodd" stroke="none" stroke-width="0" stroke-linecap="round" stroke-linejoin="miter" stroke-miterlimit="10" stroke-dasharray="" stroke-dashoffset="0" style="mix-blend-mode: normal"><path d="M144.7,142.5l-6.6,6.6c-2.2,-2.66667 -5.05,-4.75 -8.55,-6.25c-3.5,-1.5 -7.25,-2.25 -11.25,-2.25c-7.8,0 -14.4,2.7 -19.8,8.1c-5.33333,5.46667 -8,12.3 -8,20.5c0,8.2 2.66667,15.03333 8,20.5c5.4,5.4 12,8.1 19.8,8.1c7.13333,0 13.06667,-2 17.8,-6c4.73333,-4 7.46667,-9.5 8.2,-16.5h-26v-8.6h34.7c0.33333,1.86667 0.5,3.66667 0.5,5.4c0,10 -2.96667,17.96667 -8.9,23.9c-6.66667,7.06667 -15.43333,10.6 -26.3,10.6c-10.4,0 -19.2,-3.6 -26.4,-10.8c-7.2,-7.2 -10.8,-16.06667 -10.8,-26.6c0,-10.53333 3.6,-19.4 10.8,-26.6c7.2,-7.2 16,-10.8 26.4,-10.8c5.26667,0 10.23333,0.93333 14.9,2.8c4.66667,1.86667 8.5,4.5 11.5,7.9zM273.8,213.9l8.7,-3.6c1,2.86667 2.73333,5.16667 5.2,6.9c2.46667,1.73333 5.33333,2.6 8.6,2.6c5,0 8.9,-1.5 11.7,-4.5c2.8,-3 4.2,-7.13333 4.2,-12.4v-4.7h-0.4c-1.73333,2.6 -4.08333,4.65 -7.05,6.15c-2.96667,1.5 -6.18333,2.25 -9.65,2.25c-6.4,0 -11.9,-2.5 -16.5,-7.5c-4.53333,-5.13333 -6.8,-11.33333 -6.8,-18.6c0,-7.26667 2.26667,-13.43333 6.8,-18.5c4.6,-5.06667 10.1,-7.6 16.5,-7.6c3.46667,0 6.68333,0.75 9.65,2.25c2.96667,1.5 5.31667,3.55 7.05,6.15h0.4v-6.8h8.8v46.9c0,7.86667 -2.23333,14.03333 -6.7,18.5c-4.53333,4.53333 -10.53333,6.8 -18,6.8c-2.73333,0 -5.3,-0.35 -7.7,-1.05c-2.4,-0.7 -4.58333,-1.68333 -6.55,-2.95c-1.96667,-1.26667 -3.65,-2.76667 -5.05,-4.5c-1.4,-1.73333 -2.46667,-3.66667 -3.2,-5.8zM296.6,198.2c4.53333,0 8.23333,-1.63333 11.1,-4.9c3,-3.26667 4.5,-7.53333 4.5,-12.8c0,-5.13333 -1.5,-9.36667 -4.5,-12.7c-2.93333,-3.33333 -6.63333,-5 -11.1,-5c-4.4,0 -8.1,1.66667 -11.1,5c-3,3.33333 -4.5,7.56667 -4.5,12.7c0,5.2 1.5,9.43333 4.5,12.7c3,3.33333 6.7,5 11.1,5z" fill="#0084ff"/><path d="M398.9,181.2l-0.1,1h-38.5c0.13333,4.8 1.73333,8.66667 4.8,11.6c3.06667,2.93333 6.73333,4.4 11,4.4c5.86667,0 10.46667,-2.93333 13.8,-8.8l8.2,4c-2.2,4.13333 -5.25,7.36667 -9.15,9.7c-3.9,2.33333 -8.31667,3.5 -13.25,3.5c-7.2,0 -13.13333,-2.46667 -17.8,-7.4c-4.66667,-4.93333 -7,-11.16667 -7,-18.7c0,-7.46667 2.26667,-13.68333 6.8,-18.65c4.53333,-4.96667 10.33333,-7.45 17.4,-7.45c7.26667,0 13.05,2.35 17.35,7.05c4.3,4.7 6.45,11.28333 6.45,19.75zM159.8,180.5c0,-7.53333 2.36667,-13.76667 7.1,-18.7c4.8,-4.93333 10.83333,-7.4 18.1,-7.4c7.26667,0 13.26667,2.46667 18,7.4c4.8,4.93333 7.2,11.16667 7.2,18.7c0,7.6 -2.4,13.83333 -7.2,18.7c-4.73333,4.93333 -10.73333,7.4 -18,7.4c-7.26667,0 -13.3,-2.46667 -18.1,-7.4c-4.73333,-4.93333 -7.1,-11.16667 -7.1,-18.7zM169,180.5c0,5.26667 1.53333,9.53333 4.6,12.8c3.06667,3.26667 6.86667,4.9 11.4,4.9c4.53333,0 8.33333,-1.63333 11.4,-4.9c3.06667,-3.26667 4.6,-7.53333 4.6,-12.8c0,-5.2 -1.53333,-9.43333 -4.6,-12.7c-3.13333,-3.33333 -6.93333,-5 -11.4,-5c-4.46667,0 -8.26667,1.66667 -11.4,5c-3.06667,3.26667 -4.6,7.5 -4.6,12.7zM361,174.6h28.1c-0.26667,-3.4 -1.65,-6.21667 -4.15,-8.45c-2.5,-2.23333 -5.85,-3.35 -10.05,-3.35c-3.46667,0 -6.45,1.06667 -8.95,3.2c-2.5,2.13333 -4.15,5 -4.95,8.6z" fill="#ff0000"/><path d="M215.8,180.5c0,-7.53333 2.36667,-13.76667 7.1,-18.7c4.8,-4.93333 10.83333,-7.4 18.1,-7.4c7.26667,0 13.26667,2.46667 18,7.4c4.8,4.93333 7.2,11.16667 7.2,18.7c0,7.6 -2.4,13.83333 -7.2,18.7c-4.73333,4.93333 -10.73333,7.4 -18,7.4c-7.26667,0 -13.3,-2.46667 -18.1,-7.4c-4.73333,-4.93333 -7.1,-11.16667 -7.1,-18.7zM225,180.5c0,5.26667 1.53333,9.53333 4.6,12.8c3.06667,3.26667 6.86667,4.9 11.4,4.9c4.53333,0 8.33333,-1.63333 11.4,-4.9c3.06667,-3.26667 4.6,-7.53333 4.6,-12.8c0,-5.2 -1.53333,-9.43333 -4.6,-12.7c-3.13333,-3.33333 -6.93333,-5 -11.4,-5c-4.46667,0 -8.26667,1.66667 -11.4,5c-3.06667,3.26667 -4.6,7.5 -4.6,12.7z" fill="#00ac3f"/><path d="M333,156h9.2v49h-9.2zM344.1,139.1c0,1.8 -0.63333,3.33333 -1.9,4.6c-1.26667,1.26667 -2.8,1.9 -4.6,1.9c-1.8,0 -3.33333,-0.63333 -4.6,-1.9c-1.26667,-1.26667 -1.9,-2.8 -1.9,-4.6c0,-1.8 0.63333,-3.33333 1.9,-4.6c1.26667,-1.26667 2.8,-1.9 4.6,-1.9c1.8,0 3.33333,0.63333 4.6,1.9c1.26667,1.26667 1.9,2.8 1.9,4.6z" fill="#ffb900"/></g></g></svg>