<svg width="317.803" height="96.401" viewBox="0 0 317.803 96.401" xmlns="http://www.w3.org/2000/svg"><g id="svgGroup" stroke-linecap="round" fill-rule="evenodd" font-size="9pt" stroke="#ffffff" stroke-width="0.4mm" fill="#ffffff" style="stroke:#ffffff;stroke-width:0.4mm;fill:#ffffff"><path d="M 63.603 10.701 L 57.003 17.301 Q 53.703 13.301 48.453 11.051 Q 43.203 8.801 37.203 8.801 Q 25.503 8.801 17.403 16.901 Q 9.403 25.101 9.403 37.401 Q 9.403 49.701 17.403 57.901 Q 25.503 66.001 37.203 66.001 Q 47.903 66.001 55.003 60.001 Q 62.103 54.001 63.203 43.501 L 37.203 43.501 L 37.203 34.901 L 71.903 34.901 Q 72.403 37.701 72.403 40.301 Q 72.403 55.301 63.503 64.201 Q 53.503 74.801 37.203 74.801 Q 21.603 74.801 10.803 64.001 Q 0.003 53.201 0.003 37.401 Q 0.003 21.601 10.803 10.801 Q 21.603 0.001 37.203 0.001 Q 45.103 0.001 52.103 2.801 Q 59.103 5.601 63.603 10.701 Z M 192.703 82.101 L 201.403 78.501 Q 202.903 82.801 206.603 85.401 Q 210.303 88.001 215.203 88.001 Q 222.703 88.001 226.903 83.501 Q 231.103 79.001 231.103 71.101 L 231.103 66.401 L 230.703 66.401 Q 228.103 70.301 223.653 72.551 Q 219.203 74.801 214.003 74.801 Q 204.403 74.801 197.503 67.301 Q 190.703 59.601 190.703 48.701 Q 190.703 37.801 197.503 30.201 Q 204.403 22.601 214.003 22.601 Q 219.203 22.601 223.653 24.851 Q 228.103 27.101 230.703 31.001 L 231.103 31.001 L 231.103 24.201 L 239.903 24.201 L 239.903 71.101 Q 239.903 82.901 233.203 89.601 Q 226.403 96.401 215.203 96.401 Q 211.103 96.401 207.503 95.351 Q 203.903 94.301 200.953 92.401 Q 198.003 90.501 195.903 87.901 Q 193.803 85.301 192.703 82.101 Z M 317.803 49.401 L 317.703 50.401 L 279.203 50.401 Q 279.403 57.601 284.003 62.001 Q 288.603 66.401 295.003 66.401 Q 303.803 66.401 308.803 57.601 L 317.003 61.601 Q 313.703 67.801 307.853 71.301 Q 302.003 74.801 294.603 74.801 Q 283.803 74.801 276.803 67.401 Q 269.803 60.001 269.803 48.701 Q 269.803 37.501 276.603 30.051 Q 283.403 22.601 294.003 22.601 Q 304.903 22.601 311.353 29.651 Q 317.803 36.701 317.803 49.401 Z M 78.703 48.701 Q 78.703 37.401 85.803 30.001 Q 93.003 22.601 103.903 22.601 Q 114.803 22.601 121.903 30.001 Q 129.103 37.401 129.103 48.701 Q 129.103 60.101 121.903 67.401 Q 114.803 74.801 103.903 74.801 Q 93.003 74.801 85.803 67.401 Q 78.703 60.001 78.703 48.701 Z M 134.703 48.701 Q 134.703 37.401 141.803 30.001 Q 149.003 22.601 159.903 22.601 Q 170.803 22.601 177.903 30.001 Q 185.103 37.401 185.103 48.701 Q 185.103 60.101 177.903 67.401 Q 170.803 74.801 159.903 74.801 Q 149.003 74.801 141.803 67.401 Q 134.703 60.001 134.703 48.701 Z M 251.903 24.201 L 261.103 24.201 L 261.103 73.201 L 251.903 73.201 L 251.903 24.201 Z M 87.903 48.701 Q 87.903 56.601 92.503 61.501 Q 97.103 66.401 103.903 66.401 Q 110.703 66.401 115.303 61.501 Q 119.903 56.601 119.903 48.701 Q 119.903 40.901 115.303 36.001 Q 110.603 31.001 103.903 31.001 Q 97.203 31.001 92.503 36.001 Q 87.903 40.901 87.903 48.701 Z M 143.903 48.701 Q 143.903 56.601 148.503 61.501 Q 153.103 66.401 159.903 66.401 Q 166.703 66.401 171.303 61.501 Q 175.903 56.601 175.903 48.701 Q 175.903 40.901 171.303 36.001 Q 166.603 31.001 159.903 31.001 Q 153.203 31.001 148.503 36.001 Q 143.903 40.901 143.903 48.701 Z M 215.503 66.401 Q 222.303 66.401 226.603 61.501 Q 231.103 56.601 231.103 48.701 Q 231.103 41.001 226.603 36.001 Q 222.203 31.001 215.503 31.001 Q 208.903 31.001 204.403 36.001 Q 199.903 41.001 199.903 48.701 Q 199.903 56.501 204.403 61.401 Q 208.903 66.401 215.503 66.401 Z M 279.903 42.801 L 308.003 42.801 Q 307.603 37.701 303.853 34.351 Q 300.103 31.001 293.803 31.001 Q 288.603 31.001 284.853 34.201 Q 281.103 37.401 279.903 42.801 Z M 263.003 7.301 Q 263.003 10.001 261.103 11.901 Q 259.203 13.801 256.503 13.801 Q 253.803 13.801 251.903 11.901 Q 250.003 10.001 250.003 7.301 Q 250.003 4.601 251.903 2.701 Q 253.803 0.801 256.503 0.801 Q 259.203 0.801 261.103 2.701 Q 263.003 4.601 263.003 7.301 Z" vector-effect="non-scaling-stroke"/></g></svg>
