<svg width="381.738" height="74.073" viewBox="0 0 381.738 74.073" xmlns="http://www.w3.org/2000/svg"><g id="svgGroup" stroke-linecap="round" fill-rule="evenodd" font-size="9pt" stroke="#de0000" stroke-width="1mm" fill="#ff0000" style="stroke:#de0000;stroke-width:1mm;fill:#ff0000"><path d="M 262.842 73.096 L 258.447 66.992 Q 256.836 68.457 255.005 69.751 Q 253.174 71.045 251.172 71.997 Q 249.17 72.949 247.046 73.511 Q 244.922 74.072 242.725 74.072 Q 237.891 74.072 233.643 72.363 Q 229.395 70.654 226.196 67.505 Q 222.998 64.355 221.167 59.839 Q 219.336 55.322 219.336 49.707 L 219.336 20.801 L 232.617 20.801 L 232.617 49.707 Q 232.617 52.344 233.423 54.419 Q 234.229 56.494 235.596 57.91 Q 236.963 59.326 238.794 60.059 Q 240.625 60.791 242.725 60.791 Q 244.775 60.791 246.606 59.839 Q 248.438 58.887 249.805 57.324 Q 251.172 55.762 251.953 53.784 Q 252.734 51.807 252.734 49.707 L 252.734 20.801 L 266.064 20.801 L 266.064 73.096 L 262.842 73.096 Z M 134.033 43.213 L 134.033 73.096 L 120.703 73.096 L 120.703 20.801 L 123.926 20.801 L 128.32 25.879 Q 131.543 22.949 135.62 21.362 Q 139.697 19.775 144.141 19.775 Q 148.926 19.775 153.174 21.606 Q 157.422 23.438 160.596 26.636 Q 163.77 29.834 165.601 34.106 Q 167.432 38.379 167.432 43.213 L 167.432 73.096 L 154.102 73.096 L 154.102 43.213 Q 154.102 41.162 153.32 39.331 Q 152.539 37.5 151.172 36.133 Q 149.805 34.766 147.998 33.984 Q 146.191 33.203 144.141 33.203 Q 142.041 33.203 140.186 33.984 Q 138.33 34.766 136.963 36.133 Q 135.596 37.5 134.814 39.331 Q 134.033 41.162 134.033 43.213 Z M 212.549 73.096 L 202.441 73.096 Q 197.607 73.096 193.359 71.265 Q 189.111 69.434 185.913 66.235 Q 182.715 63.037 180.884 58.789 Q 179.053 54.541 179.053 49.707 L 179.053 34.18 L 172.559 34.18 L 172.559 20.898 L 179.053 20.898 L 179.053 0 L 192.334 0 L 192.334 20.898 L 212.549 20.898 L 212.549 34.18 L 192.334 34.18 L 192.334 49.707 Q 192.334 51.807 193.115 53.638 Q 193.896 55.469 195.264 56.836 Q 196.631 58.203 198.486 59.009 Q 200.342 59.814 202.441 59.814 L 212.549 59.814 L 212.549 73.096 Z M 14.014 59.082 L 14.014 73.096 L 0 73.096 L 0 3.076 L 28.027 3.076 Q 31.885 3.076 35.449 4.077 Q 39.014 5.078 42.114 6.909 Q 45.215 8.74 47.778 11.304 Q 50.342 13.867 52.173 16.992 Q 54.004 20.117 55.005 23.682 Q 56.006 27.246 56.006 31.104 Q 56.006 36.865 53.809 41.968 Q 51.611 47.07 47.803 50.879 Q 43.994 54.688 38.892 56.885 Q 33.789 59.082 28.027 59.082 L 14.014 59.082 Z M 275.146 46.484 L 275.146 0 L 288.525 0 L 288.525 24.414 Q 289.6 23.047 291.138 21.973 Q 292.676 20.898 294.458 20.215 Q 296.24 19.531 298.145 19.165 Q 300.049 18.799 301.855 18.799 Q 307.422 18.799 312.28 20.874 Q 317.139 22.949 320.752 26.66 Q 324.365 30.371 326.465 35.425 Q 328.564 40.479 328.564 46.484 Q 328.564 52.637 326.465 57.715 Q 324.365 62.793 320.752 66.431 Q 317.139 70.068 312.28 72.07 Q 307.422 74.072 301.855 74.072 Q 296.338 74.072 291.479 72.021 Q 286.621 69.971 282.983 66.309 Q 279.346 62.646 277.246 57.593 Q 275.146 52.539 275.146 46.484 Z M 381.738 30.176 L 356.738 60.303 Q 357.52 60.547 358.301 60.62 Q 359.082 60.693 359.863 60.693 Q 361.816 60.693 363.623 60.156 Q 365.43 59.619 367.017 58.618 Q 368.604 57.617 369.849 56.177 Q 371.094 54.736 371.875 52.979 L 381.641 62.793 Q 379.785 65.43 377.368 67.529 Q 374.951 69.629 372.144 71.094 Q 369.336 72.559 366.235 73.315 Q 363.135 74.072 359.863 74.072 Q 354.346 74.072 349.487 72.021 Q 344.629 69.971 340.991 66.309 Q 337.354 62.646 335.254 57.593 Q 333.154 52.539 333.154 46.484 Q 333.154 40.283 335.254 35.156 Q 337.354 30.029 340.991 26.416 Q 344.629 22.803 349.487 20.801 Q 354.346 18.799 359.863 18.799 Q 363.135 18.799 366.26 19.58 Q 369.385 20.361 372.192 21.826 Q 375 23.291 377.441 25.415 Q 379.883 27.539 381.738 30.176 Z M 113.33 46.484 Q 113.33 52.344 111.23 57.397 Q 109.131 62.451 105.518 66.138 Q 101.904 69.824 97.046 71.948 Q 92.188 74.072 86.621 74.072 Q 81.104 74.072 76.245 71.948 Q 71.387 69.824 67.749 66.138 Q 64.111 62.451 62.012 57.397 Q 59.912 52.344 59.912 46.484 Q 59.912 40.527 62.012 35.449 Q 64.111 30.371 67.749 26.685 Q 71.387 22.998 76.245 20.898 Q 81.104 18.799 86.621 18.799 Q 92.188 18.799 97.046 20.776 Q 101.904 22.754 105.518 26.392 Q 109.131 30.029 111.23 35.132 Q 113.33 40.234 113.33 46.484 Z M 28.027 17.09 L 14.014 17.09 L 14.014 45.117 L 28.027 45.117 Q 30.908 45.117 33.447 44.019 Q 35.986 42.92 37.891 41.016 Q 39.795 39.111 40.894 36.548 Q 41.992 33.984 41.992 31.104 Q 41.992 28.223 40.894 25.659 Q 39.795 23.096 37.891 21.191 Q 35.986 19.287 33.447 18.188 Q 30.908 17.09 28.027 17.09 Z M 99.902 46.484 Q 99.902 43.262 98.853 40.649 Q 97.803 38.037 95.996 36.157 Q 94.189 34.277 91.772 33.276 Q 89.355 32.275 86.621 32.275 Q 83.887 32.275 81.47 33.276 Q 79.053 34.277 77.271 36.157 Q 75.488 38.037 74.463 40.649 Q 73.438 43.262 73.438 46.484 Q 73.438 49.512 74.463 52.1 Q 75.488 54.688 77.271 56.592 Q 79.053 58.496 81.47 59.595 Q 83.887 60.693 86.621 60.693 Q 89.355 60.693 91.772 59.668 Q 94.189 58.643 95.996 56.787 Q 97.803 54.932 98.853 52.295 Q 99.902 49.658 99.902 46.484 Z M 315.137 46.484 Q 315.137 43.457 314.087 40.845 Q 313.037 38.232 311.23 36.328 Q 309.424 34.424 307.007 33.35 Q 304.59 32.275 301.855 32.275 Q 299.121 32.275 296.704 33.472 Q 294.287 34.668 292.48 36.646 Q 290.674 38.623 289.648 41.187 Q 288.623 43.75 288.623 46.484 Q 288.623 49.512 289.648 52.1 Q 290.674 54.688 292.48 56.592 Q 294.287 58.496 296.704 59.595 Q 299.121 60.693 301.855 60.693 Q 304.59 60.693 307.007 59.595 Q 309.424 58.496 311.23 56.592 Q 313.037 54.688 314.087 52.1 Q 315.137 49.512 315.137 46.484 Z M 348.047 53.418 L 363.574 32.813 Q 362.646 32.471 361.743 32.373 Q 360.84 32.275 359.863 32.275 Q 357.129 32.275 354.712 33.276 Q 352.295 34.277 350.513 36.133 Q 348.73 37.988 347.705 40.601 Q 346.68 43.213 346.68 46.484 Q 346.68 47.217 346.753 48.145 Q 346.826 49.072 346.997 50.024 Q 347.168 50.977 347.412 51.855 Q 347.656 52.734 348.047 53.418 Z" vector-effect="non-scaling-stroke"/></g></svg>